# xmcd
#
# Track frame offsets:
#	150
#	9411
#	29295
#	48352
#	65080
#	74866
#	86026
#	102005
#	116525
#	132243
#	148112
#	164505
#	180396
#
# Disc length: 2605 seconds
#
# Revision: 1
# Processed by: cddbd v1.4PL0 Copyright (c) Steve Scherf et al.
# Submitted via: audiograbber 1.80.04
#
DISCID=b80a2b0d
DTITLE=DOIS A UM - DOIS A UM ao vivo
DYEAR=2000
DGENRE=Sertanejo
TTITLE0=Dois a um - Abertura
TTITLE1=Dois a um - Amor perfeito
TTITLE2=Dois a um - Mãe Lua
TTITLE3=Dois a um - Meu Amor (My Love)
TTITLE4=Dois a um - Falso Coração (Blame it on my Heart)
TTITLE5=Dois a um - Osso do Peito
TTITLE6=Dois a um - Telefone Mudo
TTITLE7=Dois a um - Espinhos da Vida
TTITLE8=Dois a um - Horas de amor
TTITLE9=Dois a um - Uma pra mim, uma pra tu
TTITLE10=Dois a um - Chique Demais
TTITLE11=Dois a um - Dois amigos (Bônus)
TTITLE12=Dois a um - More than words (Bônus track)
EXTD=
EXTT0=
EXTT1=
EXTT2=
EXTT3=
EXTT4=
EXTT5=
EXTT6=
EXTT7=
EXTT8=
EXTT9=
EXTT10=
EXTT11=
EXTT12=
PLAYORDER=
